<svg width="30" height="31" viewBox="0 0 30 31" fill="none" xmlns="http://www.w3.org/2000/svg">
<path d="M23.75 14.0028H8.925L13.4625 8.55279C13.6747 8.29751 13.7768 7.96841 13.7463 7.63788C13.7158 7.30735 13.5553 7.00246 13.3 6.79029C13.0447 6.57811 12.7156 6.47604 12.3851 6.50651C12.0546 6.53698 11.7497 6.69752 11.5375 6.95279L5.2875 14.4528C5.24545 14.5124 5.20785 14.5751 5.175 14.6403C5.175 14.7028 5.175 14.7403 5.0875 14.8028C5.03084 14.9461 5.00118 15.0987 5 15.2528C5.00118 15.4069 5.03084 15.5595 5.0875 15.7028C5.0875 15.7653 5.0875 15.8028 5.175 15.8653C5.20785 15.9305 5.24545 15.9931 5.2875 16.0528L11.5375 23.5528C11.655 23.6939 11.8022 23.8074 11.9686 23.8851C12.1349 23.9629 12.3164 24.0031 12.5 24.0028C12.7921 24.0034 13.0751 23.9016 13.3 23.7153C13.4266 23.6103 13.5312 23.4815 13.6079 23.336C13.6846 23.1906 13.7318 23.0315 13.7469 22.8678C13.762 22.704 13.7447 22.5389 13.6959 22.3819C13.6471 22.2249 13.5678 22.0791 13.4625 21.9528L8.925 16.5028H23.75C24.0815 16.5028 24.3995 16.3711 24.6339 16.1367C24.8683 15.9022 25 15.5843 25 15.2528C25 14.9213 24.8683 14.6033 24.6339 14.3689C24.3995 14.1345 24.0815 14.0028 23.75 14.0028Z" fill="#F53838"/>
</svg>
