<svg width="30" height="31" viewBox="0 0 30 31" fill="none" xmlns="http://www.w3.org/2000/svg">
<path d="M6.25 14.0028H21.075L16.5375 8.55279C16.3253 8.29751 16.2232 7.96841 16.2537 7.63788C16.2842 7.30735 16.4447 7.00246 16.7 6.79029C16.9553 6.57811 17.2844 6.47604 17.6149 6.50651C17.9454 6.53698 18.2503 6.69752 18.4625 6.95279L24.7125 14.4528C24.7545 14.5124 24.7922 14.5751 24.825 14.6403C24.825 14.7028 24.825 14.7403 24.9125 14.8028C24.9692 14.9461 24.9988 15.0987 25 15.2528C24.9988 15.4069 24.9692 15.5595 24.9125 15.7028C24.9125 15.7653 24.9125 15.8028 24.825 15.8653C24.7922 15.9305 24.7545 15.9931 24.7125 16.0528L18.4625 23.5528C18.345 23.6939 18.1978 23.8074 18.0314 23.8851C17.8651 23.9629 17.6836 24.0031 17.5 24.0028C17.2079 24.0034 16.9249 23.9016 16.7 23.7153C16.5734 23.6103 16.4688 23.4815 16.3921 23.336C16.3154 23.1906 16.2682 23.0315 16.2531 22.8678C16.238 22.704 16.2553 22.5389 16.3041 22.3819C16.3529 22.2249 16.4322 22.0791 16.5375 21.9528L21.075 16.5028H6.25C5.91848 16.5028 5.60054 16.3711 5.36612 16.1367C5.13169 15.9022 5 15.5843 5 15.2528C5 14.9213 5.13169 14.6033 5.36612 14.3689C5.60054 14.1345 5.91848 14.0028 6.25 14.0028Z" fill="white"/>
</svg>
